<svg xmlns="http://www.w3.org/2000/svg" width="980" height="520" viewBox="0 0 980 520" role="img">
  <rect width="100%" height="100%" fill="#ffffff"/>
  <style>
    .title { font: 700 22px system-ui, -apple-system, BlinkMacSystemFont, "Segoe UI", sans-serif; fill: #0f172a; }
    .subtitle { font: 13px system-ui, -apple-system, BlinkMacSystemFont, "Segoe UI", sans-serif; fill: #475569; }
    .axis { stroke: #cbd5e1; stroke-width: 1; }
    .grid { stroke: #e2e8f0; stroke-width: 1; }
    .tick { font: 12px system-ui, -apple-system, BlinkMacSystemFont, "Segoe UI", sans-serif; fill: #475569; }
    .label { font: 12px system-ui, -apple-system, BlinkMacSystemFont, "Segoe UI", sans-serif; fill: #334155; }
    .value { font: 700 12px system-ui, -apple-system, BlinkMacSystemFont, "Segoe UI", sans-serif; fill: #0f172a; }
    .note { font: 12px system-ui, -apple-system, BlinkMacSystemFont, "Segoe UI", sans-serif; fill: #64748b; }
    .legend { font: 12px system-ui, -apple-system, BlinkMacSystemFont, "Segoe UI", sans-serif; fill: #334155; }
  </style>
<text class="title" x="80" y="36">Iteration Sweep: Heuristic Rollout vs Heuristic Baseline</text>
<text class="subtitle" x="80" y="58">40 paired games per point, rollout depth 6, pruning defaults; error bars are reported 95% CI half-widths.</text>
<line class="grid" x1="80" x2="940" y1="430.0" y2="430.0"/>
<text class="tick" x="68" y="434.0" text-anchor="end">0%</text>
<line class="grid" x1="80" x2="940" y1="344.0" y2="344.0"/>
<text class="tick" x="68" y="348.0" text-anchor="end">25%</text>
<line class="grid" x1="80" x2="940" y1="258.0" y2="258.0"/>
<text class="tick" x="68" y="262.0" text-anchor="end">50%</text>
<line class="grid" x1="80" x2="940" y1="172.0" y2="172.0"/>
<text class="tick" x="68" y="176.0" text-anchor="end">75%</text>
<line class="grid" x1="80" x2="940" y1="86.0" y2="86.0"/>
<text class="tick" x="68" y="90.0" text-anchor="end">100%</text>
<line class="axis" x1="80" x2="80" y1="86" y2="430"/>
<line class="axis" x1="80" x2="940" y1="430" y2="430"/>
<polyline points="80.0,292.4 252.0,223.6 424.0,309.6 596.0,215.0 768.0,215.0 940.0,197.8" fill="none" stroke="#2563eb" stroke-width="4" stroke-linejoin="round"/>
<line x1="80.0" x2="80.0" y1="242.5" y2="342.3" stroke="#334155" stroke-width="1.5"/>
<line x1="74.0" x2="86.0" y1="242.5" y2="242.5" stroke="#334155" stroke-width="1.5"/>
<line x1="74.0" x2="86.0" y1="342.3" y2="342.3" stroke="#334155" stroke-width="1.5"/>
<circle cx="80.0" cy="292.4" r="6" fill="#2563eb" stroke="#fff" stroke-width="2"/>
<text class="value" x="80.0" y="278.4" text-anchor="middle">40.0%</text>
<text class="tick" x="80.0" y="458" text-anchor="middle">10</text>
<line x1="252.0" x2="252.0" y1="173.7" y2="273.5" stroke="#334155" stroke-width="1.5"/>
<line x1="246.0" x2="258.0" y1="173.7" y2="173.7" stroke="#334155" stroke-width="1.5"/>
<line x1="246.0" x2="258.0" y1="273.5" y2="273.5" stroke="#334155" stroke-width="1.5"/>
<circle cx="252.0" cy="223.6" r="6" fill="#2563eb" stroke="#fff" stroke-width="2"/>
<text class="value" x="252.0" y="209.6" text-anchor="middle">60.0%</text>
<text class="tick" x="252.0" y="458" text-anchor="middle">20</text>
<line x1="424.0" x2="424.0" y1="260.8" y2="358.4" stroke="#334155" stroke-width="1.5"/>
<line x1="418.0" x2="430.0" y1="260.8" y2="260.8" stroke="#334155" stroke-width="1.5"/>
<line x1="418.0" x2="430.0" y1="358.4" y2="358.4" stroke="#334155" stroke-width="1.5"/>
<circle cx="424.0" cy="309.6" r="6" fill="#2563eb" stroke="#fff" stroke-width="2"/>
<text class="value" x="424.0" y="295.6" text-anchor="middle">35.0%</text>
<text class="tick" x="424.0" y="458" text-anchor="middle">50</text>
<line x1="596.0" x2="596.0" y1="165.5" y2="264.5" stroke="#334155" stroke-width="1.5"/>
<line x1="590.0" x2="602.0" y1="165.5" y2="165.5" stroke="#334155" stroke-width="1.5"/>
<line x1="590.0" x2="602.0" y1="264.5" y2="264.5" stroke="#334155" stroke-width="1.5"/>
<circle cx="596.0" cy="215.0" r="6" fill="#2563eb" stroke="#fff" stroke-width="2"/>
<text class="value" x="596.0" y="201.0" text-anchor="middle">62.5%</text>
<text class="tick" x="596.0" y="458" text-anchor="middle">100</text>
<line x1="768.0" x2="768.0" y1="165.5" y2="264.5" stroke="#334155" stroke-width="1.5"/>
<line x1="762.0" x2="774.0" y1="165.5" y2="165.5" stroke="#334155" stroke-width="1.5"/>
<line x1="762.0" x2="774.0" y1="264.5" y2="264.5" stroke="#334155" stroke-width="1.5"/>
<circle cx="768.0" cy="215.0" r="6" fill="#2563eb" stroke="#fff" stroke-width="2"/>
<text class="value" x="768.0" y="201.0" text-anchor="middle">62.5%</text>
<text class="tick" x="768.0" y="458" text-anchor="middle">200</text>
<line x1="940.0" x2="940.0" y1="150.0" y2="245.6" stroke="#334155" stroke-width="1.5"/>
<line x1="934.0" x2="946.0" y1="150.0" y2="150.0" stroke="#334155" stroke-width="1.5"/>
<line x1="934.0" x2="946.0" y1="245.6" y2="245.6" stroke="#334155" stroke-width="1.5"/>
<circle cx="940.0" cy="197.8" r="6" fill="#2563eb" stroke="#fff" stroke-width="2"/>
<text class="value" x="940.0" y="183.8" text-anchor="middle">67.5%</text>
<text class="tick" x="940.0" y="458" text-anchor="middle">500</text>
<text class="label" x="510.0" y="492" text-anchor="middle">MCTS iterations per decision</text>
</svg>
